<?xml version="1.0" encoding="utf-8"?>
<!-- Generator: Adobe Illustrator 25.0.0, SVG Export Plug-In . SVG Version: 6.00 Build 0)  -->
<svg version="1.1" id="Layer_1" xmlns="http://www.w3.org/2000/svg" xmlns:xlink="http://www.w3.org/1999/xlink" x="0px" y="0px"
	 viewBox="0 0 319.1 241.5" style="enable-background:new 0 0 319.1 241.5;" xml:space="preserve">
<g>
	<path d="M114.2,0.1c1,0.7,1.3,1.6,1.8,2.4c2,4.1,4,8.1,6,12.2c0.3,0.7,0.7,1.3,1.1,2c0.9,0,1.7,0.1,2.4,0
		c5.8-0.6,11.5-1.4,17.3-1.8c8.4-0.5,16.9-1,25.3-0.4c3.8,0.3,7.7,0.3,11.5,0.7c4.4,0.4,8.8,0.8,13.2,1.4c3.3,0.4,3.2,0.4,4.6-2.6
		c1.8-3.8,3.6-7.5,5.5-11.3c0.4-0.9,1-1.7,1.6-2.7c0.7,0.1,1.3,0.1,1.9,0.2c14.5,2.5,28.7,6.3,42.5,11.2c6.7,2.4,13.3,5,19.7,7.9
		c1.3,0.6,2.3,1.4,3.1,2.6c15.6,23.1,27.9,47.7,36.1,74.4c4,13.1,7,26.4,8.8,39.9c1,7.3,1.6,14.6,2.1,21.9
		c0.5,7.6,0.5,15.2,0.3,22.8c-0.2,5.9-0.7,11.8-1,17.6c0,0.5-0.2,1-0.2,1.5c-0.1,1-0.6,1.7-1.4,2.3c-2,1.4-4,2.9-6.1,4.3
		c-21.7,14.8-45.1,26.3-70.2,34.2c-3.3,1-3.1,1.2-5.2-1.7c-5.2-7.2-9.8-14.8-14-22.6c-0.4-0.7-0.9-1.4-0.8-2.4
		c0.5-0.8,1.4-0.9,2.2-1.2c7.4-2.9,14.6-6.3,21.5-10.3c0.9-0.5,1.9-0.8,2.4-1.8c-0.1-0.3-0.2-0.5-0.4-0.7c-1.5-1.2-3.1-2.4-4.6-3.7
		c-0.7-0.5-1.4-0.6-2.1-0.2c-1.1,0.5-2.2,1-3.3,1.4c-15.6,6.8-31.8,11.5-48.6,14c-6.2,0.9-12.5,1.6-18.8,1.8
		c-3.2,0.1-6.3,0.3-9.5,0.3c-6.9-0.1-13.8-0.5-20.7-1.3c-13.3-1.5-26.2-4.5-38.9-8.7c-6.1-2-12-4.3-17.9-6.9
		c-0.5-0.2-1.1-0.5-1.6-0.7c-0.7-0.3-1.3-0.2-1.9,0.3c-1.7,1.4-3.5,2.7-5.1,4c0,1,0.7,1.1,1.1,1.4c5.3,3.1,10.8,5.9,16.4,8.3
		c2.2,1,4.4,1.8,6.6,2.8c0.7,0.3,1.3,0.6,2.1,1c-0.3,0.7-0.4,1.3-0.7,1.8c-4.4,8.4-9.4,16.5-14.9,24.2c-0.2,0.2-0.3,0.4-0.5,0.6
		c-0.6,0.9-1.4,1.1-2.4,0.8c-1.9-0.6-3.7-1.2-5.6-1.8c-11.9-4-23.5-8.8-34.7-14.4c-12.8-6.4-25.1-13.9-36.8-22.2
		c-0.3-0.2-0.7-0.5-1-0.8c-0.8-0.6-1.2-1.3-1.3-2.4c-0.3-5-0.8-10-1-15.1C-0.1,179.3,0,174,0,168.7c0-9.7,0.8-19.3,2-28.8
		c2.2-17.8,6.3-35.1,12.1-52c5.6-16.1,12.7-31.5,21.1-46.3c3.7-6.6,7.8-13,11.9-19.4c1-1.5,2.2-2.5,3.8-3.2
		c14.2-6.4,28.9-11.4,44-15.2c6-1.5,12-2.8,18-3.8C113.3,0.1,113.8,0.1,114.2,0.1z M241.4,132.6c-0.3-2.3-0.4-4.6-0.8-6.8
		c-1.6-8.1-5.6-14.8-12.3-19.7c-5-3.6-10.7-5.5-16.8-5.1c-8.2,0.4-15,3.9-20.1,10.3c-7.5,9.4-9.3,20.1-6.1,31.6
		c2,7,5.9,12.7,11.8,16.9c6,4.2,12.6,5.9,19.9,4.7c7.5-1.3,13.3-5.2,17.7-11.2C239.2,147.1,241.3,140.2,241.4,132.6z M135.4,132.6
		c-0.3-2.3-0.4-4.6-0.8-6.8c-1.6-8.1-5.6-14.8-12.3-19.7c-5-3.6-10.6-5.5-16.8-5.2c-8.2,0.4-15,3.9-20.1,10.3
		c-7.5,9.4-9.3,20.1-6.1,31.6c2,7,5.9,12.7,11.8,16.9c5.5,3.9,11.6,5.7,18.4,4.9c7.6-0.9,13.7-4.5,18.5-10.4
		C132.9,147.9,135.3,140.7,135.4,132.6z"/>
</g>
</svg>
