<?xml version="1.0" encoding="utf-8"?>
<!-- Generator: Adobe Illustrator 25.0.0, SVG Export Plug-In . SVG Version: 6.00 Build 0)  -->
<svg version="1.1" id="Layer_1" xmlns="http://www.w3.org/2000/svg" xmlns:xlink="http://www.w3.org/1999/xlink" x="0px" y="0px"
	 viewBox="0 0 324.8 148.3" style="enable-background:new 0 0 324.8 148.3;" xml:space="preserve">
<path d="M0.1-0.6c10.2,0.1,20.5,0.2,30.7,0.2c2.4,0,3.9,0.8,5.2,2.7C43.5,12.6,51,22.8,58.6,33c0.9,1.2,1.8,2.3,3,3.9
	c1.1-1.3,2-2.3,2.7-3.3c7.6-10.2,15.2-20.4,22.6-30.7c1.8-2.5,3.7-3.4,6.8-3.3c9,0.2,18,0.1,27.3,0.1c0,43.1,0,86,0,129.4
	c-1.3,0.1-2.6,0.2-3.9,0.2c-8.4,0-16.7,0-25.1,0c-5,0-5,0-5-4.8c0-21.4,0-42.8,0-64.2c0-1.5-0.2-3.1-0.2-4.6c-0.3-0.1-0.7-0.3-1-0.4
	c-7.9,10.1-15.8,20.3-24.1,31c-8.2-10.5-16.1-20.8-24.1-31c-0.3,0.1-0.6,0.2-0.9,0.3c0,24.4,0,48.7,0,73.8c-12.6,0-24.6,0-36.7,0
	C0.1,86,0.1,42.7,0.1-0.6z"/>
<path d="M237.5,29.1c-1.6,0-3,0-4.5,0c-11,0.2-22-0.2-32.9,0.9c-15.7,1.6-27.4,9.4-33.2,24.6c-0.5,1.3-0.8,2.8-1.4,4.8
	c5.3,0,10,0,14.7,0c5.2,0,10.5-0.1,15.7,0c2.6,0.1,3.6-0.8,3.5-3.4c-0.1-6.2,0.1-12.4-0.1-18.7c0-2.6,0.9-3.5,3.5-3.4
	c8.5,0.1,17,0.1,25.5,0c2.3,0,3.4,0.5,3.4,3.1c-0.1,30-0.1,60-0.1,90c0,0.5-0.1,1-0.2,1.8c-10.1,0-20.3,0-31,0c0-1.6,0-3.1,0-4.7
	c0-10.6-0.1-21.2,0.1-31.7c0-3-1-3.8-3.9-3.8c-10.4,0.1-20.7,0.2-31.1,0c-3,0-3.9,0.9-3.9,3.8c-0.1,10.9,3.8,20.7,8.4,30.3
	c3.6,7.6,3.6,7.6-3.5,12.3c-6.5,4.3-13.1,8.6-20.2,13.3c-3.7-8.2-7.6-15.8-10.6-23.8c-9-24-11.6-48.3-2.7-72.9
	c11-30.9,33.7-46.8,65.9-49.8c9.2-0.9,18.5-0.6,27.7-0.7c1.2,0,3.2,1.1,3.5,2.1c2.6,7.9,4.9,15.9,7.3,23.9
	C237.6,27.6,237.5,28.1,237.5,29.1z"/>
<path d="M324.6,99.9c0.4,0,0.1,0.8,0.1,0.8c-0.8,1.8-1.4,3.2-1.7,4c-1.7,4.4-5.1,15.6-6.8,21.3c-0.7,2.2-1.7,3.1-4.2,3.1
	c-21.5-0.1-42.9-0.1-64.4,0c-2.3,0-3.6-0.3-3.6-3.2c0.1-40.8,0.1-81.6,0.1-122.4c0-0.6,0.1-1.2,0.2-2.3c11.2,0,22.1,0,33.4,0
	c0.1,1.8,0.2,3.3,0.2,4.9c0,29.7,0.1,59.4-0.1,89.2c0,3.7,0.9,4.9,4.8,4.9c12.6-0.2,25.2-0.1,37.8-0.1c1.9,0,3.1,0,3.8-0.3"/>
</svg>
